<?xml version="1.0" encoding="utf-8"?>
<!-- Generator: Adobe Illustrator 28.2.0, SVG Export Plug-In . SVG Version: 6.00 Build 0)  -->
<svg version="1.1" xmlns="http://www.w3.org/2000/svg" xmlns:xlink="http://www.w3.org/1999/xlink" x="0px" y="0px"
	 viewBox="0 0 11000 2000" style="enable-background:new 0 0 11000 2000;" xml:space="preserve">
<style type="text/css">
	.st0{fill:#38A6D8;}
	.st1{fill:#CE1126;}
</style>
<g id="Layer_1">
	<path class="st0" d="M1803.73,1137.71c0,145.12-117.98,263.1-263.1,263.1H977.85V574.93h520.31
		c122.7,0,222.99,100.29,222.99,222.99c0,44.83-12.98,86.13-35.4,120.34C1756.54,965.45,1803.73,1045.68,1803.73,1137.71z
		 M1125.33,873.42h374.01c41.29,0,75.51-34.21,75.51-75.51c0-41.29-34.22-75.51-75.51-75.51h-374.01V873.42z M1540.63,1252.15
		c63.71,0,115.62-51.91,115.62-115.62c0-63.71-51.91-115.62-115.62-115.62h-415.3v232.43h415.3V1252.15z"/>
	<path class="st0" d="M2583.53,1400.81h-165.18l-75.51-147.48l-180.52-353.95l-180.52,353.95l-75.51,147.48h-165.18l75.51-147.48
		l345.69-678.41l345.69,678.41L2583.53,1400.81z"/>
	<path class="st0" d="M3208.64,1254.51v147.48h-418.84c-41.29,0-80.23-9.44-115.62-27.14c-51.91-25.96-94.39-68.43-119.16-120.34
		c-17.7-35.4-27.14-74.33-27.14-115.62V576.11h147.48v576.94c7.08,51.91,48.37,93.21,100.29,100.29L3208.64,1254.51z"/>
	<path class="st0" d="M3005.81,1400.81h2.36l-2.36,2.36V1400.81z M3831.7,573.75l-319.74,414.12l-17.7,22.42v389.35h-147.48v-386.99
		l-20.06-24.78l-319.74-414.12h186.41l226.53,293.78l226.53-293.78H3831.7z M3830.52,1400.81h1.18v2.36L3830.52,1400.81z"/>
	<path class="st1" d="M4179.37,797.91v76.69h530.93v147.48h-530.93v155.74c0,41.29,34.21,75.51,75.51,75.51h720.87v148.16
		l-720.87-0.68c-122.7,0-221.81-100.29-221.81-222.99V797.91c0-122.7,99.11-222.99,221.81-222.99h602.9v147.48h-602.9
		C4213.58,722.41,4179.37,756.62,4179.37,797.91z"/>
	<path class="st1" d="M5801.64,576.11v825.89l-147.48-113.26l-530.93-409.4v522.67h-147.48V578.47l147.48,113.26l530.93,409.4
		V574.93L5801.64,576.11z"/>
	<path class="st1" d="M6515.03,722.41h-713V576.45l713-1.52c122.7,0,221.81,100.29,221.81,222.99v379.91
		c0,122.7-99.11,222.99-221.81,222.99h-602.9v-147.48h602.9c41.29,0,75.51-34.22,75.51-75.51v-155.74h-530.93V874.6h530.93v-76.69
		C6590.54,756.62,6556.33,722.41,6515.03,722.41z"/>
	<path class="st1" d="M7439.17,1255.69l75.51,147.48H7349.5l-75.51-147.48l-79.05-154.56l-3.54-7.08
		c-25.96-42.47-71.97-70.79-125.06-70.79h-147.48v379.91h-147.48V577.29h521.49c61.35,0,116.8,24.78,156.92,64.89
		c40.12,40.11,64.89,95.57,64.89,156.92c0,89.67-53.09,167.54-129.78,202.93c-20.06,9.44-41.29,15.34-63.71,17.7L7439.17,1255.69z
		 M7292.87,875.78c10.62,0,21.24-2.36,30.68-7.08c27.14-11.8,44.83-38.93,44.83-68.43c0-27.14-14.16-46.01-22.42-54.27
		c-9.44-9.44-27.14-21.24-53.09-21.24h-374.01v152.2L7292.87,875.78z"/>
	<path class="st1" d="M7662.81,987.87c0,146.3,119.16,265.46,265.46,265.46h265.46v-158.1h-265.46V947.75h412.94v453.06h-412.94
		c-227.71,0-412.94-185.23-412.94-412.94s185.23-412.94,412.94-412.94L8431,577v147l-502.73-1.59
		C7781.97,722.41,7662.81,841.57,7662.81,987.87z"/>
	<path class="st1" d="M8341.11,1402.44h2.36l-2.36,2.36V1402.44z M9165.82,1402.44h1.18v2.36L9165.82,1402.44z"/>
	<polygon class="st1" points="977.85,1400.81 830.67,1400.92 830.42,574.92 977.85,574.93 	"/>
</g>
<g id="Layer_2">
</g>
<g id="Layer_3">
	<g>
		<path class="st1" d="M8434.87,1405.04l-4.35-828.15l147.04-0.77l4.35,828.15L8434.87,1405.04z"/>
		<path class="st1" d="M8756.39,802.33l0.4,76.9l529.34-2.78l0.78,147.88l-529.34,2.78l0.82,156.17
			c0.22,41.41,34.51,75.54,75.68,75.32l601.1-3.16l0.78,147.88l-601.1,3.16c-122.34,0.64-221.67-99.4-222.32-222.44l-2-380.95
			c-0.65-123.04,97.63-224.12,219.97-224.76l601.1-3.16l0.78,147.88l-601.1,3.16C8790.11,726.43,8756.17,760.92,8756.39,802.33z"/>
		<path class="st1" d="M10083.1,804.04l-0.02-4.76c-0.22-41.64-34.51-75.96-75.68-75.74l-334.07,1.77
			c-41.17,0.22-75.1,34.9-74.89,76.54l0.02,4.76c0.22,41.64,34.51,75.96,75.68,75.74l296.43-1.57
			c76.46-0.4,144.86,32.55,192.19,84.65c3.41,3.42,5.74,6.84,9.07,10.26c0.26,0.27,0.52,0.55,0.75,0.84
			c36.5,44.96,59,102.96,59.33,165.82c0.76,145.15-115.08,263.54-258.59,264.3l-257.61,1.36
			c-143.51,0.76-260.58-116.41-261.34-261.55l147.04-0.78c0.33,63.06,51.18,113.94,113.52,113.62l257.61-1.36
			c62.34-0.33,113.84-51.76,113.51-114.82c-0.33-63.06-52.36-113.94-114.7-113.61l-296.43,1.57
			c-59.99,0.32-114.23-23.19-154.42-62.24c-10.64-10.65-20.12-22.5-28.42-35.54c-24.89-35.56-39.23-79.51-39.48-127.09l-0.02-4.76
			c-0.65-123.73,97.63-225.38,219.97-226.03l334.07-1.77c122.34-0.65,222.85,99.95,223.5,223.68l0.02,4.76L10083.1,804.04z"/>
	</g>
</g>
</svg>
